# xmcd
#
# Track frame offsets: 
#        150
#        18255
#        37050
#        67310
#        97087
#        123457
#        148657
#        175337
#        200837
#
# Disc length: 2985 seconds
#
# Revision: 0
# Processed by: cddbd v1.5.2PL0 Copyright (c) Steve Scherf et al.
# Submitted via: ExactAudioCopyFreeDBPlugin 1.0
#
DISCID=8e0ba709
DTITLE=Stephanie Mills - Never Do You Wrong (Promo CDM)
DYEAR=1993
DGENRE=Funk
TTITLE0=Never Do You Wrong (Radio Version)
TTITLE1=Never Do You Wrong (Remix Radio Version)
TTITLE2=Never Do You Wrong (Remix Dub)
TTITLE3=Never Do You Wrong (House Club Mix)
TTITLE4=Never Do You Wrong (House Dub)
TTITLE5=Never Do You Wrong (Dark Stupid Dub)
TTITLE6=Never Do You Wrong (Club Mix #2)
TTITLE7=Never Do You Wrong (Drumappella)
TTITLE8=Never Do You Wrong (House Instrumental)
EXTD=
EXTT0=
EXTT1=
EXTT2=
EXTT3=
EXTT4=
EXTT5=
EXTT6=
EXTT7=
EXTT8=
PLAYORDER=
